0
SECTION
2
HEADER
9
$INSUNITS
70
4
9
$ACADVER
1
AC1014
9
$HANDSEED
5
FFFF
0
ENDSEC
0
SECTION
2
TABLES
0
TABLE
2
VPORT
5
8
100
AcDbSymbolTable
0
ENDTAB
0
TABLE
2
LTYPE
5
5
100
AcDbSymbolTable
0
LTYPE
5
14
100
AcDbSymbolTableRecord
100
AcDbLinetypeTableRecord
2
BYBLOCK
70
0
0
LTYPE
5
15
100
AcDbSymbolTableRecord
100
AcDbLinetypeTableRecord
2
BYLAYER
70
0
0
LTYPE
5
16
100
AcDbSymbolTableRecord
100
AcDbLinetypeTableRecord
2
DASHED
70
0
3
Dashed __ __ __ __ __ __ __ __ __ __ __ __ __ _
72
65
73
2
40
0.75
49
0.5
74
0
49
-0.25
74
0
0
ENDTAB
0
TABLE
2
LAYER
5
2
100
AcDbSymbolTable
70
2
0
LAYER
5
50
100
AcDbSymbolTableRecord
100
AcDbLayerTableRecord
2
0
70
0
62
7
6
CONTINUOUS
0
ENDTAB
0
TABLE
2
STYLE
5
3
100
AcDbSymbolTable
70
1
0
STYLE
5
11
100
AcDbSymbolTableRecord
100
AcDbTextStyleTableRecord
2
STANDARD
70
0
0
ENDTAB
0
TABLE
2
VIEW
5
6
100
AcDbSymbolTable
70
0
0
ENDTAB
0
TABLE
2
UCS
5
7
100
AcDbSymbolTable
70
0
0
ENDTAB
0
TABLE
2
APPID
5
9
100
AcDbSymbolTable
70
2
0
APPID
5
12
100
AcDbSymbolTableRecord
100
AcDbRegAppTableRecord
2
ACAD
70
0
0
ENDTAB
0
TABLE
2
DIMSTYLE
5
A
100
AcDbSymbolTable
70
1
0
ENDTAB
0
TABLE
2
BLOCK_RECORD
5
1
100
AcDbSymbolTable
70
1
0
BLOCK_RECORD
5
1F
100
AcDbSymbolTableRecord
100
AcDbBlockTableRecord
2
*MODEL_SPACE
0
BLOCK_RECORD
5
1B
100
AcDbSymbolTableRecord
100
AcDbBlockTableRecord
2
*PAPER_SPACE
0
ENDTAB
0
ENDSEC
0
SECTION
2
BLOCKS
0
BLOCK
5
20
100
AcDbEntity
100
AcDbBlockBegin
2
*MODEL_SPACE
0
ENDBLK
5
21
100
AcDbEntity
100
AcDbBlockEnd
0
BLOCK
5
1C
100
AcDbEntity
100
AcDbBlockBegin
2
*PAPER_SPACE
0
ENDBLK
5
1D
100
AcDbEntity
100
AcDbBlockEnd
0
ENDSEC
0
SECTION
2
ENTITIES
0
POINT
5
100
100
AcDbEntity
8
0
100
AcDbPoint
10
94.232116699218764
20
-32.375003814697266
30
0
0
CIRCLE
5
101
100
AcDbEntity
8
0
100
AcDbCircle
10
80.700893402099609
20
-13.250009536743166
30
0
40
1.875
210
0
220
-0
230
1
0
CIRCLE
5
102
100
AcDbEntity
8
0
100
AcDbCircle
10
80.700893402099609
20
-13.250009536743166
30
0
40
5.875
210
0
220
-0
230
1
0
CIRCLE
5
103
100
AcDbEntity
8
0
100
AcDbCircle
10
115.6695556640625
20
-6.8750019073486435
30
0
40
1.8750000000000004
210
-0
220
0
230
1
0
CIRCLE
5
104
100
AcDbEntity
8
0
100
AcDbCircle
10
115.6695556640625
20
-6.8750019073486435
30
0
40
5.8750000000000018
210
-5.4738221262688179e-48
220
2.4651903288156619e-32
230
1
0
CIRCLE
5
105
100
AcDbEntity
8
0
100
AcDbCircle
10
104.01333236694339
20
-13.250001907348635
30
0
40
1.875
210
5.6765829152710406e-33
220
-1.8903791330668625e-80
230
1
0
CIRCLE
5
106
100
AcDbEntity
8
0
100
AcDbCircle
10
104.01333236694339
20
-13.250001907348635
30
0
40
5.875
210
-6.2122782449747027e-33
220
2.0687729463993379e-80
230
1
0
CIRCLE
5
107
100
AcDbEntity
8
0
100
AcDbCircle
10
115.6695556640625
20
-19.624998092651367
30
0
40
1.875
210
5.6765829152710461e-33
220
-1.8903791330668643e-80
230
1
0
CIRCLE
5
108
100
AcDbEntity
8
0
100
AcDbCircle
10
115.6695556640625
20
-19.624998092651367
30
0
40
5.875
210
-6.2122782449746999e-33
220
2.0687729463993361e-80
230
1
0
CIRCLE
5
109
100
AcDbEntity
8
0
100
AcDbCircle
10
104.01333618164062
20
-26
30
0
40
1.875
210
5.6765829152710461e-33
220
4.3241418995751744e-80
230
1
0
CIRCLE
5
110
100
AcDbEntity
8
0
100
AcDbCircle
10
104.01333618164062
20
-26
30
0
40
5.875
210
-6.2122782449746999e-33
220
-4.7322082759768486e-80
230
1
0
CIRCLE
5
111
100
AcDbEntity
8
0
100
AcDbCircle
10
115.6695556640625
20
-32.374996185302734
30
0
40
1.875
210
5.6765829152710461e-33
220
-1.8903791330668643e-80
230
1
0
CIRCLE
5
112
100
AcDbEntity
8
0
100
AcDbCircle
10
115.6695556640625
20
-32.374996185302734
30
0
40
5.875
210
-6.2122782449746999e-33
220
2.0687729463993368e-80
230
1
0
CIRCLE
5
113
100
AcDbEntity
8
0
100
AcDbCircle
10
104.01333618164062
20
-38.75
30
0
40
1.875
210
5.6765829152710406e-33
220
-1.8903791330668625e-80
230
1
0
CIRCLE
5
114
100
AcDbEntity
8
0
100
AcDbCircle
10
104.01333618164062
20
-38.75
30
0
40
5.875
210
-6.2122782449747027e-33
220
2.0687729463993379e-80
230
1
0
CIRCLE
5
115
100
AcDbEntity
8
0
100
AcDbCircle
10
115.6695556640625
20
-45.124992370605469
30
0
40
1.875
210
5.6765829152710406e-33
220
-1.8903791330668625e-80
230
1
0
CIRCLE
5
116
100
AcDbEntity
8
0
100
AcDbCircle
10
115.6695556640625
20
-45.124992370605469
30
0
40
5.875
210
-6.2122782449747027e-33
220
2.0687729463993379e-80
230
1
0
CIRCLE
5
117
100
AcDbEntity
8
0
100
AcDbCircle
10
104.01333236694339
20
-51.499996185302734
30
0
40
1.875
210
5.6765829152710406e-33
220
-1.8903791330668625e-80
230
1
0
CIRCLE
5
118
100
AcDbEntity
8
0
100
AcDbCircle
10
104.01333236694339
20
-51.499996185302734
30
0
40
5.875
210
-6.2122782449747027e-33
220
2.0687729463993379e-80
230
1
0
CIRCLE
5
119
100
AcDbEntity
8
0
100
AcDbCircle
10
92.357112884521484
20
-45.124996185302734
30
0
40
5.875
210
8.7853195816438542e-33
220
1.0758913505146713e-48
230
1
0
CIRCLE
5
120
100
AcDbEntity
8
0
100
AcDbCircle
10
92.357116699218764
20
-32.375003814697266
30
0
40
1.875
210
5.6765829152710406e-33
220
4.3241418995751699e-80
230
1
0
CIRCLE
5
121
100
AcDbEntity
8
0
100
AcDbCircle
10
92.357116699218764
20
-32.375003814697266
30
0
40
5.875
210
-6.2122782449747027e-33
220
-4.7322082759768508e-80
230
1
0
CIRCLE
5
122
100
AcDbEntity
8
0
100
AcDbCircle
10
92.357112884521484
20
-45.124996185302734
30
0
40
1.875
210
4.2395785497851858e-33
220
5.1919863007282051e-49
230
1
0
CIRCLE
5
123
100
AcDbEntity
8
0
100
AcDbCircle
10
92.357112884521484
20
-45.124996185302734
30
0
40
5.875
210
8.7853195816438542e-33
220
1.0758913505146713e-48
230
1
0
CIRCLE
5
124
100
AcDbEntity
8
0
100
AcDbCircle
10
92.357112884521484
20
-19.625005722045898
30
0
40
1.875
210
5.6765829152710461e-33
220
-1.8903791330668643e-80
230
1
0
CIRCLE
5
125
100
AcDbEntity
8
0
100
AcDbCircle
10
92.357112884521484
20
-19.625005722045898
30
0
40
5.875
210
-6.2122782449746999e-33
220
2.0687729463993361e-80
230
1
0
CIRCLE
5
126
100
AcDbEntity
8
0
100
AcDbCircle
10
92.357109069824247
20
-6.8750076293945312
30
0
40
1.875
210
5.6765829152710461e-33
220
-1.8903791330668651e-80
230
1
0
CIRCLE
5
127
100
AcDbEntity
8
0
100
AcDbCircle
10
92.357109069824247
20
-6.8750076293945312
30
0
40
5.875
210
-6.2122782449746999e-33
220
2.0687729463993375e-80
230
1
0
CIRCLE
5
128
100
AcDbEntity
8
0
100
AcDbCircle
10
73.87311241462244
20
-4.8749999999999982
30
0
40
1.875
210
4.2395785497851804e-33
220
5.1919863007281975e-49
230
1
0
CIRCLE
5
129
100
AcDbEntity
8
0
100
AcDbCircle
10
73.87311241462244
20
-4.8749999999999982
30
0
40
3.8749999999999996
210
3.7094300919753638e-33
220
4.5427416887985016e-49
230
1
0
CIRCLE
5
130
100
AcDbEntity
8
0
100
AcDbCircle
10
80.700889587402358
20
-26.000007629394535
30
0
40
1.875
210
5.6765829152710406e-33
220
-1.8903791330668625e-80
230
1
0
CIRCLE
5
131
100
AcDbEntity
8
0
100
AcDbCircle
10
80.700889587402358
20
-26.000007629394535
30
0
40
5.875
210
-6.2122782449747027e-33
220
2.0687729463993379e-80
230
1
0
CIRCLE
5
132
100
AcDbEntity
8
0
100
AcDbCircle
10
80.700889587402358
20
-38.750000000000014
30
0
40
1.8750000000000004
210
-0
220
0
230
1
0
CIRCLE
5
133
100
AcDbEntity
8
0
100
AcDbCircle
10
80.700889587402358
20
-38.750000000000014
30
0
40
5.8750000000000018
210
-1.642146637880645e-47
220
-2.4651903288156619e-32
230
1
0
CIRCLE
5
134
100
AcDbEntity
8
0
100
AcDbCircle
10
80.700889587402358
20
-51.499996185302734
30
0
40
1.8750000000000004
210
-5.4738221262688155e-48
220
-2.4651903288156619e-32
230
1
0
CIRCLE
5
135
100
AcDbEntity
8
0
100
AcDbCircle
10
80.700889587402358
20
-51.499996185302734
30
0
40
5.8750000000000018
210
-1.0947644252537633e-47
220
2.4308653429145079e-63
230
1
0
CIRCLE
5
136
100
AcDbEntity
8
0
100
AcDbCircle
10
69.9508979065658
20
-53.874996185302741
30
0
40
1.875
210
5.6765829152710406e-33
220
4.3241418995751699e-80
230
1
0
CIRCLE
5
137
100
AcDbEntity
8
0
100
AcDbCircle
10
69.9508979065658
20
-53.874996185302741
30
0
40
3.8749999999999996
210
4.6162859996514075e-33
220
3.5164598156075377e-80
230
1
0
CIRCLE
5
138
100
AcDbEntity
8
0
100
AcDbCircle
10
63.123103405690067
20
-47.500003814697266
30
0
40
1.875
210
4.2395785497851831e-33
220
5.191986300728202e-49
230
1
0
CIRCLE
5
139
100
AcDbEntity
8
0
100
AcDbCircle
10
63.123103405690067
20
-47.500003814697266
30
0
40
3.875
210
3.7094300919753693e-33
220
4.5427416887985076e-49
230
1
0
CIRCLE
5
140
100
AcDbEntity
8
0
100
AcDbCircle
10
71.873097155833392
20
-45.124996185302734
30
0
40
1.875
210
5.6765829152710406e-33
220
-1.8903791330668625e-80
230
1
0
CIRCLE
5
141
100
AcDbEntity
8
0
100
AcDbCircle
10
71.873097155833392
20
-45.124996185302734
30
0
40
3.8749999999999996
210
4.6162859996514075e-33
220
-1.5372858736078304e-80
230
1
0
CIRCLE
5
142
100
AcDbEntity
8
0
100
AcDbCircle
10
57.123734210276751
20
-41.125007629394538
30
0
40
3.875
210
4.616285999651413e-33
220
-1.5372858736078315e-80
230
1
0
CIRCLE
5
143
100
AcDbEntity
8
0
100
AcDbCircle
10
57.123734210276751
20
-41.125007629394538
30
0
40
1.875
210
5.6765829152710461e-33
220
-1.8903791330668643e-80
230
1
0
CIRCLE
5
144
100
AcDbEntity
8
0
100
AcDbCircle
10
57.123734210276751
20
-41.125007629394538
30
0
40
3.875
210
4.616285999651413e-33
220
-1.5372858736078315e-80
230
1
0
CIRCLE
5
145
100
AcDbEntity
8
0
100
AcDbCircle
10
65.873729016041636
20
-38.750003814697273
30
0
40
1.875
210
4.2395785497851858e-33
220
5.1919863007282051e-49
230
1
0
CIRCLE
5
146
100
AcDbEntity
8
0
100
AcDbCircle
10
65.873729016041636
20
-38.750003814697273
30
0
40
1.875
210
4.2395785497851858e-33
220
5.1919863007282051e-49
230
1
0
CIRCLE
5
147
100
AcDbEntity
8
0
100
AcDbCircle
10
65.873729016041636
20
-38.750003814697273
30
0
40
3.875
210
3.7094300919753747e-33
220
4.5427416887985145e-49
230
1
0
CIRCLE
5
148
100
AcDbEntity
8
0
100
AcDbCircle
10
71.873097155833406
20
-32.375003814697266
30
0
40
1.875
210
5.6765829152710461e-33
220
-1.8903791330668651e-80
230
1
0
CIRCLE
5
149
100
AcDbEntity
8
0
100
AcDbCircle
10
71.873097155833406
20
-32.375003814697266
30
0
40
3.875
210
4.616285999651413e-33
220
-1.5372858736078321e-80
230
1
0
CIRCLE
5
150
100
AcDbEntity
8
0
100
AcDbCircle
10
59.874367450022845
20
-32.375015258789062
30
0
40
1.875
210
5.6765829152710461e-33
220
-1.8903791330668651e-80
230
1
0
CIRCLE
5
151
100
AcDbEntity
8
0
100
AcDbCircle
10
59.874367450022845
20
-32.375015258789062
30
0
40
3.875
210
4.616285999651413e-33
220
-1.5372858736078321e-80
230
1
0
CIRCLE
5
152
100
AcDbEntity
8
0
100
AcDbCircle
10
65.873725891113281
20
-26.000008319163467
30
0
40
1.8750000000000004
210
-0
220
0
230
1
0
CIRCLE
5
153
100
AcDbEntity
8
0
100
AcDbCircle
10
65.873725891113281
20
-26.000008319163467
30
0
40
3.8750000000000009
210
1.6421466378806448e-47
220
2.4651903288156619e-32
230
1
0
CIRCLE
5
154
100
AcDbEntity
8
0
100
AcDbCircle
10
55.875008319163456
20
-24.000007629394531
30
0
40
1.875
210
5.6765829152710406e-33
220
-1.8903791330668625e-80
230
1
0
CIRCLE
5
155
100
AcDbEntity
8
0
100
AcDbCircle
10
55.875008319163456
20
-24.000007629394531
30
0
40
3.8749999999999996
210
4.6162859996514075e-33
220
-1.5372858736078304e-80
230
1
0
CIRCLE
5
156
100
AcDbEntity
8
0
100
AcDbCircle
10
57.123734210276744
20
-53.875007629394531
30
0
40
1.875
210
5.6765829152710406e-33
220
-1.8903791330668625e-80
230
1
0
CIRCLE
5
157
100
AcDbEntity
8
0
100
AcDbCircle
10
57.123734210276744
20
-53.875007629394531
30
0
40
3.8749999999999996
210
4.6162859996514075e-33
220
-1.5372858736078304e-80
230
1
0
CIRCLE
5
158
100
AcDbEntity
8
0
100
AcDbCircle
10
61.874375079417376
20
-4.8750038146972656
30
0
40
1.875
210
5.6765829152710406e-33
220
4.3241418995751699e-80
230
1
0
CIRCLE
5
159
100
AcDbEntity
8
0
100
AcDbCircle
10
61.874375079417376
20
-4.8750038146972656
30
0
40
3.8749999999999996
210
4.6162859996514075e-33
220
3.5164598156075377e-80
230
1
0
CIRCLE
5
160
100
AcDbEntity
8
0
100
AcDbCircle
10
55.875000689768939
20
-11.25
30
0
40
1.875
210
5.6765829152710406e-33
220
-1.8903791330668625e-80
230
1
0
CIRCLE
5
161
100
AcDbEntity
8
0
100
AcDbCircle
10
55.875000689768939
20
-11.25
30
0
40
3.8749999999999996
210
4.6162859996514075e-33
220
-1.5372858736078304e-80
230
1
0
CIRCLE
5
162
100
AcDbEntity
8
0
100
AcDbCircle
10
61.874375079417369
20
-17.625
30
0
40
1.875
210
5.6765829152710461e-33
220
4.3241418995751744e-80
230
1
0
CIRCLE
5
163
100
AcDbEntity
8
0
100
AcDbCircle
10
61.874375079417369
20
-17.625
30
0
40
3.875
210
4.616285999651413e-33
220
3.5164598156075414e-80
230
1
0
CIRCLE
5
164
100
AcDbEntity
8
0
100
AcDbCircle
10
67.873741839671283
20
-11.249998092651367
30
0
40
1.875
210
5.6765829152710461e-33
220
-1.8903791330668651e-80
230
1
0
CIRCLE
5
165
100
AcDbEntity
8
0
100
AcDbCircle
10
67.873741839671283
20
-11.249998092651367
30
0
40
3.875
210
4.616285999651413e-33
220
-1.5372858736078321e-80
230
1
0
CIRCLE
5
166
100
AcDbEntity
8
0
100
AcDbCircle
10
71.873097155833392
20
-19.625007629394531
30
0
40
1.875
210
5.6765829152710406e-33
220
-1.8903791330668625e-80
230
1
0
CIRCLE
5
167
100
AcDbEntity
8
0
100
AcDbCircle
10
71.873097155833392
20
-19.625007629394531
30
0
40
3.8749999999999996
210
4.6162859996514075e-33
220
-1.5372858736078304e-80
230
1
0
ENDSEC
0
SECTION
2
OBJECTS
0
DICTIONARY
5
C
100
AcDbDictionary
3
ACAD_GROUP
350
D
3
ACAD_MLINESTYLE
350
17
0
DICTIONARY
5
D
100
AcDbDictionary
0
DICTIONARY
5
1A
330
C
100
AcDbDictionary
0
DICTIONARY
5
17
100
AcDbDictionary
0
ENDSEC
0
EOF
